<?xml version="1.0" standalone="no"?>
<!DOCTYPE svg PUBLIC "-//W3C//DTD SVG 20010904//EN"
 "http://www.w3.org/TR/2001/REC-SVG-20010904/DTD/svg10.dtd">
<svg version="1.0" xmlns="http://www.w3.org/2000/svg"
 width="1200.000000pt" height="1200.000000pt" viewBox="0 0 1200.000000 1200.000000"
 preserveAspectRatio="xMidYMid meet">
<metadata>
Created by potrace 1.11, written by Peter Selinger 2001-2013
</metadata>
<g transform="translate(0.000000,1200.000000) scale(0.100000,-0.100000)"
fill="#000000" stroke="none">
<path d="M5779 10136 c-2 -2 -47 -7 -99 -10 -52 -4 -108 -9 -125 -11 -16 -2
-55 -6 -85 -10 -51 -5 -97 -12 -145 -22 -11 -2 -36 -6 -55 -9 -173 -27 -581
-137 -685 -185 -11 -5 -56 -22 -100 -38 -147 -53 -409 -181 -567 -276 -50 -30
-93 -55 -95 -55 -2 0 -31 -18 -63 -40 -32 -22 -63 -40 -69 -40 -5 0 -11 -4
-13 -8 -1 -4 -25 -23 -53 -42 -27 -19 -54 -38 -60 -43 -120 -90 -189 -145
-230 -180 -27 -24 -77 -68 -110 -97 -90 -79 -298 -293 -379 -390 -39 -47 -73
-87 -76 -90 -8 -8 -113 -150 -166 -225 -131 -185 -284 -457 -394 -699 -53
-117 -170 -440 -184 -509 -3 -12 -12 -47 -21 -77 -60 -213 -114 -525 -133
-770 -13 -179 -5 -730 12 -759 2 -3 7 -37 11 -76 3 -38 13 -104 20 -145 8 -41
17 -88 19 -105 25 -145 127 -520 165 -610 5 -11 28 -69 51 -130 90 -236 196
-445 362 -712 38 -61 76 -117 84 -124 8 -6 14 -17 14 -24 0 -8 4 -15 8 -17 4
-1 19 -19 32 -38 141 -203 396 -484 610 -671 47 -41 87 -76 90 -79 3 -3 41
-33 85 -68 44 -34 89 -69 100 -78 11 -8 32 -23 48 -32 15 -9 27 -20 27 -24 0
-4 5 -8 10 -8 6 0 34 -17 63 -38 29 -20 61 -42 72 -49 11 -7 58 -35 105 -64
222 -136 469 -255 705 -341 228 -83 267 -94 548 -158 310 -71 536 -95 887 -95
395 0 648 32 1035 130 153 38 326 91 380 116 11 5 56 22 100 38 211 76 533
245 785 410 47 31 87 58 90 61 3 4 26 21 52 38 25 18 52 38 60 44 7 7 31 26
53 42 136 101 416 365 555 525 36 41 70 79 75 85 6 6 30 38 55 71 25 33 48 62
51 65 3 3 39 52 80 110 252 356 459 770 574 1150 1 3 5 12 8 20 27 64 98 367
126 539 27 162 30 183 48 356 11 111 9 543 -2 675 -17 187 -20 209 -50 390 -6
34 -69 314 -85 375 -13 51 -74 242 -90 280 -4 11 -27 70 -50 130 -51 133 -73
183 -155 346 -57 114 -231 413 -269 464 -8 11 -62 83 -119 160 -182 246 -415
492 -656 695 -30 25 -63 51 -75 59 -12 8 -23 17 -26 21 -3 3 -39 30 -80 60
-41 30 -76 58 -78 62 -2 5 -8 8 -14 8 -6 0 -27 13 -47 28 -82 64 -366 229
-531 309 -206 100 -521 218 -695 262 -22 6 -67 17 -100 26 -33 8 -72 17 -87
20 -16 3 -56 12 -90 20 -98 22 -263 48 -383 60 -33 3 -73 8 -90 11 -35 5 -571
15 -576 10z m541 -1079 c14 -3 45 -8 70 -11 236 -30 490 -96 767 -200 61 -23
300 -140 358 -176 28 -16 58 -33 68 -36 9 -4 17 -10 17 -15 0 -5 5 -9 12 -9
23 0 255 -167 385 -277 63 -53 283 -270 323 -318 271 -327 440 -618 573 -985
39 -110 77 -229 83 -268 3 -15 9 -40 14 -57 5 -16 12 -43 15 -60 2 -16 10 -57
15 -90 18 -96 19 -107 26 -165 3 -30 10 -84 14 -120 9 -69 6 -534 -3 -585 -3
-16 -8 -50 -11 -75 -25 -231 -82 -451 -201 -770 -15 -40 -80 -186 -96 -213 -5
-10 -30 -56 -54 -103 -61 -116 -207 -334 -312 -464 -90 -113 -285 -311 -388
-396 -33 -27 -62 -51 -65 -54 -5 -5 -106 -83 -165 -127 -16 -13 -43 -30 -60
-39 -16 -9 -32 -20 -35 -23 -16 -19 -291 -172 -372 -205 l-33 -14 2 136 c1 76
3 149 3 163 0 22 14 33 96 78 88 48 312 194 324 212 3 3 28 24 55 45 66 50
130 109 245 225 109 110 117 120 199 226 34 43 66 84 72 91 68 83 299 504 324
592 3 8 11 31 30 85 47 134 102 336 118 440 3 17 8 46 11 65 37 201 43 666 11
820 -3 14 -8 43 -11 65 -8 63 -51 245 -84 359 -52 179 -167 445 -247 574 -18
29 -33 54 -33 56 0 10 -127 196 -178 261 -115 148 -289 333 -391 415 -24 19
-49 40 -55 45 -6 6 -38 30 -71 55 -33 25 -62 48 -65 51 -14 16 -240 155 -323
198 -161 82 -411 184 -537 217 -127 33 -274 63 -335 70 -27 3 -56 7 -63 9 -55
19 -483 28 -627 13 -515 -53 -1025 -252 -1415 -552 -174 -133 -424 -380 -510
-502 -8 -12 -47 -66 -86 -120 -222 -309 -390 -709 -459 -1098 -35 -194 -40
-257 -40 -491 0 -188 4 -268 22 -400 5 -41 41 -228 48 -255 3 -8 9 -31 14 -50
55 -199 99 -319 191 -517 180 -384 524 -792 881 -1045 64 -45 192 -128 198
-128 4 0 13 -6 19 -13 7 -6 16 -12 20 -12 4 0 31 -14 59 -30 41 -23 53 -36 54
-55 3 -127 3 -300 1 -300 -2 0 -16 6 -30 14 -15 8 -65 33 -112 56 -150 75
-416 245 -428 272 -2 5 -10 8 -17 8 -7 0 -15 3 -17 8 -1 4 -50 46 -108 93
-103 85 -285 266 -365 363 -22 27 -47 56 -55 65 -8 9 -26 32 -40 51 -13 19
-28 40 -33 45 -32 40 -103 146 -155 231 -52 87 -190 359 -213 419 -4 11 -15
40 -24 65 -114 299 -176 575 -200 885 -6 84 -6 372 0 435 2 25 6 68 9 95 36
375 146 749 324 1100 96 190 231 392 390 584 53 64 277 289 344 345 45 38 170
133 253 194 94 68 258 163 394 228 169 81 165 79 231 104 30 11 64 25 75 30
18 8 86 30 110 36 6 2 59 16 120 33 126 35 239 60 348 75 27 4 59 9 70 12 12
2 56 7 97 10 41 4 77 8 79 10 6 5 510 -4 541 -9z m-174 -1161 c50 -3 113 -10
140 -15 27 -6 63 -12 79 -15 111 -15 340 -93 475 -161 108 -54 261 -149 306
-190 6 -5 26 -21 44 -35 216 -164 435 -451 551 -722 77 -180 126 -366 146
-551 16 -152 7 -437 -19 -552 -46 -212 -96 -358 -170 -503 -44 -86 -142 -248
-159 -262 -3 -3 -10 -12 -15 -21 -18 -33 -90 -116 -182 -208 -73 -75 -95 -92
-103 -80 -5 7 -9 19 -10 24 -4 45 -38 150 -66 208 l-24 49 48 55 c58 67 163
201 163 208 0 3 12 24 27 48 99 156 175 368 214 594 14 79 19 337 9 397 -5 22
-11 66 -14 96 -11 88 -67 293 -87 315 -5 5 -9 15 -9 21 0 13 -80 184 -90 194
-3 3 -11 16 -19 30 -8 14 -19 34 -25 44 -25 44 -138 188 -197 251 -120 127
-305 260 -464 335 -71 33 -285 112 -285 106 0 -2 -21 2 -47 10 -26 8 -70 17
-98 20 -27 3 -64 9 -81 14 -33 8 -352 6 -394 -3 -14 -3 -43 -8 -65 -12 -108
-16 -286 -72 -402 -126 -98 -46 -237 -128 -277 -163 -16 -14 -33 -26 -38 -26
-15 0 -262 -253 -293 -300 -17 -25 -33 -47 -36 -50 -4 -3 -26 -36 -49 -75
-109 -177 -190 -401 -223 -616 -16 -98 -20 -373 -7 -422 5 -17 12 -52 15 -77
3 -25 13 -70 20 -101 8 -30 16 -64 18 -75 2 -10 7 -26 10 -34 3 -8 17 -48 32
-88 42 -114 129 -280 185 -353 63 -82 140 -176 158 -193 l21 -18 -25 -49 c-13
-27 -24 -51 -24 -54 0 -3 -2 -10 -5 -17 -26 -80 -34 -109 -40 -141 -4 -20 -10
-37 -14 -37 -8 0 -131 120 -171 166 -149 172 -249 331 -331 522 -22 53 -42
103 -44 112 -2 8 -8 27 -14 43 -6 15 -8 27 -5 27 4 0 2 6 -4 13 -15 19 -59
211 -67 297 -1 14 -6 54 -10 89 -8 75 -9 268 -2 326 3 22 9 65 12 95 4 30 11
71 15 90 5 19 12 51 15 71 8 49 68 240 101 319 61 147 199 372 301 490 61 71
179 188 222 220 18 14 40 32 49 41 63 58 194 141 334 211 234 116 448 175 703
194 44 3 81 7 82 8 3 3 102 -1 209 -8z m3 -1111 c14 -2 54 -14 90 -26 338
-111 554 -409 554 -764 -1 -211 -80 -404 -226 -549 -34 -34 -74 -71 -89 -83
-51 -42 -173 -102 -263 -129 -122 -37 -298 -40 -420 -5 -216 60 -390 196 -495
386 -64 116 -95 234 -99 376 -2 77 21 223 44 274 7 17 16 39 20 50 28 87 165
259 263 333 36 26 176 97 212 107 3 0 16 5 29 9 80 27 293 39 380 21z m96
-1762 c226 -45 431 -228 513 -458 36 -99 36 -111 38 -935 l1 -815 -799 0 -798
0 1 785 c0 752 4 855 31 945 71 234 306 444 538 481 19 3 37 8 39 10 11 10
373 0 436 -13z"/>
</g>
</svg>
